<svg width="48" height="48" viewBox="0 0 48 48" fill="none" xmlns="http://www.w3.org/2000/svg">
<path d="M12.63 12.3521C12.13 11.0761 12.15 9.6181 12.372 8.2841C13.8999 8.74322 15.3351 9.4676 16.612 10.4241C17.172 10.8521 17.906 10.9901 18.59 10.7841C20.3449 10.2578 22.1679 9.99356 24 10.0001C25.922 10.0001 27.748 10.2801 29.406 10.7821C30.09 10.9901 30.824 10.8501 31.382 10.4221C32.6583 9.4658 34.0928 8.74144 35.62 8.2821C35.842 9.6161 35.86 11.0741 35.364 12.3481C35.064 13.1161 35.214 14.0001 35.78 14.6281C37.228 16.2341 38 18.0801 38 20.0001C38 24.2281 34.06 28.3741 27.732 29.6361C26.148 29.9521 25.53 31.9461 26.742 33.0881C27.52 33.8201 28 34.8521 28 36.0001V42.0001C28 42.5305 28.2107 43.0392 28.5858 43.4143C28.9609 43.7894 29.4696 44.0001 30 44.0001C30.5304 44.0001 31.0391 43.7894 31.4142 43.4143C31.7893 43.0392 32 42.5305 32 42.0001V36.0001C32 34.8601 31.76 33.7761 31.332 32.7941C37.366 30.7001 42 25.9861 42 20.0001C42 17.3061 41.032 14.8301 39.426 12.7561C39.846 11.1161 39.808 9.4641 39.648 8.1961C39.506 7.0601 39.308 5.5721 38.508 4.6841C37.318 3.3661 35.348 4.1421 33.948 4.6201C32.4455 5.12654 31.0164 5.82929 29.698 6.7101C27.8362 6.23426 25.9217 5.9957 24 6.0001C22.012 6.0001 20.094 6.2501 18.298 6.7121C16.9796 5.83129 15.5505 5.12854 14.048 4.6221C12.648 4.1421 10.676 3.3661 9.486 4.6841C8.67 5.5881 8.5 6.9581 8.354 8.1221L8.344 8.1981C8.184 9.4681 8.148 11.1221 8.568 12.7641C6.968 14.8361 6 17.3081 6 20.0001C6 25.9841 10.634 30.7001 16.668 32.7941C16.232 33.7929 16.0047 34.8703 16 35.9601L15.664 36.0281C14.23 36.2261 13.312 36.0481 12.688 35.7841C11.168 35.1401 10.384 33.5181 9.428 32.2781C8.832 31.5081 7.964 30.5461 6.632 30.1021C6.38275 30.0191 6.1196 29.986 5.85756 30.0047C5.59552 30.0234 5.33973 30.0936 5.1048 30.2111C4.63034 30.4485 4.26962 30.8647 4.102 31.3681C3.93438 31.8715 3.9736 32.4208 4.21102 32.8953C4.44844 33.3698 4.86462 33.7305 5.368 33.8981C6.484 34.2701 7.256 36.1821 7.964 37.0301C8.71 37.9261 9.702 38.8621 11.124 39.4661C12.488 40.0461 14.09 40.2521 16 40.0181V42.0001C16 42.5305 16.2107 43.0392 16.5858 43.4143C16.9609 43.7894 17.4696 44.0001 18 44.0001C18.5304 44.0001 19.0391 43.7894 19.4142 43.4143C19.7893 43.0392 20 42.5305 20 42.0001V36.0001C20 34.8521 20.48 33.8201 21.258 33.0881C22.472 31.9441 21.852 29.9521 20.268 29.6361C13.938 28.3741 10 24.2281 10 20.0001C10 18.0841 10.77 16.2381 12.216 14.6321C12.782 14.0041 12.93 13.1201 12.63 12.3521Z" fill="white"/>
</svg>
