<svg version="1.2" xmlns="http://www.w3.org/2000/svg" viewBox="0 0 56 45" width="56" height="45">
	<style>
		.s0 { fill: #ffffff } 
	</style>
	<path class="s0" d="m5.45 44.2l-5.45-5.28 8.49-8.81q2.16-2.24 4-4.73 1.84-2.48 2.97-5.12 1.2-2.64 1.2-5.37h3.36q-0.96 2.73-2.48 4.33-1.52 1.6-4.41 1.6-2.8 0-5.12-1.44-2.32-1.36-3.77-3.68-1.36-2.41-1.36-5.29 0-4.32 3.13-7.37 3.12-3.04 7.44-3.04 4.57 0 7.69 3.44 3.12 3.37 3.36 8.89 0.16 4.81-1.68 9.13-1.84 4.33-4.32 7.61-2.4 3.36-4.09 5.2zm30.43 0l-5.44-5.28 8.49-8.81q2.16-2.24 4-4.72 1.84-2.49 2.96-5.13 1.2-2.64 1.2-5.37h3.37q-0.96 2.73-2.48 4.33-1.53 1.6-4.41 1.6-2.8 0-5.12-1.44-2.33-1.36-3.77-3.68-1.36-2.41-1.36-5.29 0-4.32 3.12-7.37 3.13-3.04 7.45-3.04 4.57 0 7.69 3.44 3.12 3.37 3.36 8.89 0.16 4.81-1.68 9.13-1.84 4.33-4.32 7.61-2.41 3.36-4.09 5.2z"/>
</svg>