<svg version="1.2" xmlns="http://www.w3.org/2000/svg" viewBox="0 0 34 43" width="34" height="43">
	<style>
		.s0 { fill: #ffffff } 
	</style>
	<path id="Ebene 2" fill-rule="evenodd" class="s0" d="m17 0.01c4.45 0 6.09 0.02 6.24 0.08 0.12 0.04 0.31 0.16 0.42 0.27 0.12 0.11 0.28 0.32 0.36 0.46 0.08 0.15 0.54 1.33 1.02 2.63 0.48 1.3 1.3 3.54 1.82 4.99 0.53 1.44 1.19 3.24 1.48 4 0.28 0.76 0.69 1.87 0.9 2.46 0.22 0.6 0.83 2.27 1.37 3.71 0.53 1.45 1.22 3.32 1.53 4.17 0.3 0.85 0.71 1.97 0.91 2.49 0.19 0.53 0.48 1.33 0.65 1.78 0.17 0.45 0.29 0.83 0.27 0.83-0.02 0.01-0.32-0.12-0.68-0.3-0.35-0.17-0.92-0.43-1.27-0.57-0.34-0.13-1.01-0.38-1.48-0.53-0.47-0.16-1.33-0.41-1.91-0.55-0.58-0.14-1.32-0.3-1.65-0.36-0.32-0.05-0.93-0.14-1.35-0.2-0.41-0.06-1.27-0.12-3.06-0.18l-1.31-4.04c-0.73-2.23-1.51-4.64-1.74-5.36-0.23-0.72-0.64-1.98-0.9-2.79-0.27-0.81-0.54-1.6-0.62-1.74-0.07-0.15-0.25-0.35-0.41-0.46-0.21-0.15-0.35-0.2-0.55-0.19-0.15 0-0.4 0.07-0.55 0.15-0.15 0.07-0.34 0.22-0.42 0.32-0.07 0.1-0.34 0.83-0.59 1.62-0.26 0.8-0.74 2.3-1.08 3.35-0.34 1.05-1.02 3.16-1.52 4.7-0.5 1.53-1.02 3.16-1.45 4.46h-0.59c-0.33 0-0.92 0.03-1.32 0.07-0.4 0.04-1.15 0.14-1.68 0.23-0.52 0.09-1.43 0.28-2.01 0.42-0.58 0.14-1.48 0.4-2.01 0.56-0.52 0.17-1.31 0.44-1.74 0.6-0.44 0.16-1.07 0.42-1.41 0.57-0.33 0.15-0.62 0.26-0.64 0.24-0.02-0.02 0.16-0.55 0.39-1.18 0.24-0.63 0.65-1.77 0.93-2.53 0.28-0.76 0.78-2.13 1.12-3.05 0.34-0.92 1.07-2.93 1.63-4.47 0.57-1.53 1.62-4.4 2.34-6.36 0.73-1.97 1.79-4.85 2.35-6.4 0.57-1.56 1.11-2.94 1.19-3.09 0.09-0.14 0.25-0.36 0.38-0.48 0.12-0.11 0.3-0.24 0.41-0.27 0.12-0.03 2.76-0.06 6.23-0.06zm-7.64 28.55c0.04 0 0.14 0.1 0.24 0.23 0.1 0.13 0.41 0.41 0.68 0.62 0.27 0.21 0.75 0.51 1.05 0.66 0.31 0.15 0.86 0.37 1.22 0.49 0.36 0.12 0.99 0.27 1.39 0.35 0.39 0.08 1.12 0.18 1.61 0.24 0.49 0.05 1.41 0.1 2.04 0.1 0.64 0 1.42-0.03 1.75-0.07 0.33-0.04 0.93-0.14 1.35-0.22 0.42-0.09 1.08-0.27 1.48-0.4 0.4-0.13 0.96-0.35 1.25-0.49 0.29-0.13 0.7-0.35 0.91-0.48 0.21-0.14 0.39-0.24 0.41-0.23 0.02 0.01 0.08 0.2 0.15 0.41 0.08 0.29 0.11 0.63 0.11 1.28 0 0.7-0.03 1-0.15 1.41-0.07 0.29-0.21 0.72-0.31 0.96-0.09 0.23-0.28 0.61-0.42 0.85-0.15 0.23-0.43 0.62-0.63 0.87-0.2 0.24-0.56 0.61-0.81 0.81-0.24 0.2-0.98 0.72-1.63 1.16-0.73 0.5-1.38 0.99-1.69 1.29-0.35 0.35-0.58 0.64-0.74 0.96-0.13 0.25-0.28 0.68-0.34 0.95q-0.11 0.49-0.07 0.98c0.02 0.27 0.11 0.77 0.19 1.1 0.12 0.51 0.13 0.6 0.05 0.57-0.05-0.02-0.26-0.13-0.46-0.24-0.19-0.12-0.55-0.39-0.78-0.61-0.23-0.21-0.55-0.57-0.71-0.78-0.15-0.22-0.39-0.62-0.52-0.89-0.12-0.27-0.29-0.73-0.36-1.02-0.1-0.37-0.16-0.9-0.2-1.8-0.04-0.71-0.1-1.4-0.14-1.55-0.04-0.14-0.14-0.39-0.23-0.55-0.08-0.17-0.23-0.38-0.33-0.47-0.11-0.09-0.28-0.22-0.39-0.29-0.14-0.09-0.36-0.13-0.76-0.15q-0.56-0.03-0.92 0.07c-0.2 0.06-0.49 0.2-0.65 0.32-0.17 0.12-0.4 0.35-0.52 0.52-0.12 0.16-0.27 0.46-0.33 0.66-0.06 0.2-0.14 0.37-0.16 0.37-0.03 0.01-0.19-0.14-0.35-0.33-0.17-0.19-0.41-0.52-0.54-0.74-0.12-0.21-0.31-0.58-0.41-0.82-0.1-0.23-0.24-0.65-0.32-0.92-0.07-0.27-0.17-0.67-0.21-0.88-0.05-0.22-0.1-0.71-0.13-1.09-0.03-0.38-0.03-1.01 0-1.41 0.03-0.39 0.1-0.96 0.16-1.26 0.07-0.3 0.14-0.54 0.17-0.54z"/>
</svg>