<svg width="30" height="30" viewBox="0 0 30 30" fill="none" xmlns="http://www.w3.org/2000/svg">
<path d="M2.21375 21.8075V26.9638H7.37L22.5775 11.7425L17.4213 6.58625L2.21375 21.8075ZM29.1775 23.3338L23.3338 29.1775L16.1837 22.0275L18.6175 19.5938L19.9925 20.9687L23.3888 17.5587L25.3413 19.5112L23.3338 21.4637L24.7913 22.8388L26.7438 20.9138L29.1775 23.3338ZM7.1775 12.98L0 5.84375L5.84375 0L8.26375 2.43375L4.8675 5.84375L6.33875 7.30125L9.72125 3.89125L11.6737 5.84375L9.72125 7.7825L11.0962 9.1575L7.1775 12.98ZM26.565 7.71375C27.1012 7.1775 27.1012 6.33875 26.565 5.775L23.3475 2.6125C22.8388 2.07625 21.945 2.07625 21.4087 2.6125L18.8787 5.12875L24.035 10.285L26.565 7.71375Z" fill="#E44064"/>
</svg>
