<svg width="91" height="45" viewBox="0 0 91 45" fill="none" xmlns="http://www.w3.org/2000/svg">
<path d="M68.107 0.000177553C65.1975 -0.0114815 62.3142 0.551164 59.6225 1.65586C56.9308 2.76057 54.4835 4.3856 52.421 6.43785L45.2084 13.3612L38.1042 6.54118C36.0351 4.46315 33.5751 2.8153 30.866 1.69266C28.157 0.570016 25.2525 -0.00520221 22.32 0.000177553C19.3893 -0.00383807 16.4868 0.572041 13.7796 1.69464C11.0724 2.81724 8.61405 4.46439 6.5462 6.54118C4.46723 8.60984 2.81843 11.0696 1.69489 13.7787C0.571357 16.4878 -0.00467413 19.3925 2.85635e-05 22.3253C2.85635e-05 28.2773 2.31986 33.8883 6.54103 38.0992C8.6095 40.1766 11.0687 41.8241 13.7768 42.9467C16.4849 44.0693 19.3884 44.6449 22.32 44.6402C25.2307 44.6533 28.1152 44.0903 30.8074 42.9837C33.4995 41.877 35.9461 40.2486 38.006 38.1922L45.2135 31.2792L52.3229 38.0992C56.5337 42.3152 62.1447 44.6402 68.107 44.6402C74.0694 44.6402 79.67 42.3203 83.8809 38.0992C88.102 33.8935 90.427 28.2825 90.427 22.315C90.427 16.3475 88.1072 10.752 83.886 6.53084C81.8167 4.4553 79.3571 2.80971 76.6491 1.68888C73.941 0.568046 71.0379 -0.0058746 68.107 0.000177553ZM28.9644 28.9593C25.4149 32.514 19.2304 32.514 15.6757 28.9593C14.7992 28.0908 14.1043 27.0564 13.6315 25.9166C13.1587 24.7767 12.9175 23.5542 12.9219 22.3202C12.9219 19.8092 13.8984 17.4583 15.686 15.6707C17.453 13.8933 19.8142 12.9168 22.32 12.9168C24.8259 12.9168 27.187 13.8933 29.0625 15.7637L35.8877 22.3253L28.9644 28.9593ZM74.7462 28.9593C71.1967 32.5192 65.1052 32.6018 61.3645 28.8663L54.5394 22.3047L61.4575 15.6655C65.0122 12.1108 71.2019 12.1108 74.7514 15.6552C76.5287 17.4428 77.5052 19.7937 77.5052 22.3047C77.5052 24.8157 76.5235 27.182 74.7462 28.9593Z" fill="#E44064"/>
</svg>
