<svg width="34" height="27" viewBox="0 0 34 27" fill="none" xmlns="http://www.w3.org/2000/svg">
<path d="M14.0833 19.1667C14.7778 19.8611 15.6528 20.1878 16.7083 20.1467C17.7639 20.1056 18.5278 19.7233 19 19L28.3333 5L14.3333 14.3333C13.6111 14.8333 13.2156 15.59 13.1467 16.6033C13.0778 17.6167 13.39 18.4711 14.0833 19.1667ZM5.16667 26.6667C4.55556 26.6667 3.99333 26.5344 3.48 26.27C2.96667 26.0056 2.55667 25.61 2.25 25.0833C1.52778 23.7778 0.972222 22.4239 0.583333 21.0217C0.194444 19.6194 0 18.1678 0 16.6667C0 14.3611 0.437778 12.1944 1.31333 10.1667C2.18889 8.13889 3.37611 6.375 4.875 4.875C6.37389 3.375 8.13778 2.18778 10.1667 1.31333C12.1956 0.438889 14.3622 0.00111111 16.6667 0C18.9444 0 21.0833 0.430556 23.0833 1.29167C25.0833 2.15278 26.8333 3.32667 28.3333 4.81333C29.8333 6.3 31.0278 8.03611 31.9167 10.0217C32.8056 12.0072 33.2639 14.1389 33.2917 16.4167C33.3194 17.9444 33.1461 19.4378 32.7717 20.8967C32.3972 22.3556 31.8206 23.7511 31.0417 25.0833C30.7361 25.6111 30.3267 26.0072 29.8133 26.2717C29.3 26.5361 28.7367 26.6678 28.1233 26.6667H5.16667Z" fill="#E44064"/>
</svg>
